<svg width="15" height="11" viewBox="0 0 15 11" fill="none" xmlns="http://www.w3.org/2000/svg">
<path d="M3.95205 3.62727L4.62329 2.86364C3.56849 1.62273 2.03425 0.954545 0.5 0.954545V1.90909C1.74658 1.90909 2.99315 2.48182 3.85616 3.43636L3.95205 3.62727ZM11.1438 8.11364C9.99315 8.11364 8.93836 7.63636 8.07534 6.87273L7.5 7.63636C8.4589 8.59091 9.80137 9.06818 11.1438 9.06818V10.5L14.5 8.59091L11.1438 6.68182V8.11364ZM11.1438 2.38636V3.81818L14.5 1.90909L11.1438 0V1.43182C9.60959 1.43182 8.07534 2.1 7.11644 3.34091L3.85616 7.06364C2.99315 8.01818 1.74658 8.59091 0.5 8.59091V9.54545C2.03425 9.54545 3.56849 8.87727 4.5274 7.63636L7.78767 3.91364C8.65068 2.95909 9.89726 2.38636 11.1438 2.38636Z" fill="#1DB954"/>
</svg>
