<svg width="40" height="40" viewBox="0 0 63 63" fill="none" xmlns="http://www.w3.org/2000/svg">
<path d="M31.25 62.5C13.9906 62.5 0 48.5094 0 31.25C0 13.9906 13.9906 0 31.25 0C48.5094 0 62.5 13.9906 62.5 31.25C62.5 48.5094 48.5094 62.5 31.25 62.5ZM31.25 56.25C37.8804 56.25 44.2393 53.6161 48.9277 48.9277C53.6161 44.2393 56.25 37.8804 56.25 31.25C56.25 24.6196 53.6161 18.2607 48.9277 13.5723C44.2393 8.88392 37.8804 6.25 31.25 6.25C24.6196 6.25 18.2607 8.88392 13.5723 13.5723C8.88392 18.2607 6.25 24.6196 6.25 31.25C6.25 37.8804 8.88392 44.2393 13.5723 48.9277C18.2607 53.6161 24.6196 56.25 31.25 56.25ZM21.875 21.875H28.125V40.625H21.875V21.875ZM34.375 21.875H40.625V40.625H34.375V21.875Z" fill="white"/>
</svg>
