<svg width="72" height="4" viewBox="0 0 72 4" fill="none" xmlns="http://www.w3.org/2000/svg">
<rect width="72" height="4" rx="2" fill="#777777"/>
<rect width="64" height="4" rx="2" fill="#B3B3B3"/>
<path d="M12.2 2.484C12.2 2.788 12.452 3.06 12.844 3.06C13.188 3.06 13.38 2.876 13.464 2.74C13.464 2.88 13.476 2.952 13.484 3H13.852C13.844 2.952 13.828 2.852 13.828 2.684V1.72C13.828 1.344 13.604 1.016 13.028 1.016C12.612 1.016 12.28 1.272 12.24 1.64L12.6 1.724C12.624 1.5 12.772 1.336 13.036 1.336C13.328 1.336 13.452 1.492 13.452 1.68C13.452 1.748 13.42 1.808 13.304 1.824L12.784 1.9C12.452 1.948 12.2 2.14 12.2 2.484ZM12.896 2.744C12.704 2.744 12.584 2.608 12.584 2.464C12.584 2.292 12.704 2.2 12.864 2.176L13.452 2.088V2.176C13.452 2.596 13.204 2.744 12.896 2.744ZM14.5338 2.484C14.5338 2.788 14.7858 3.06 15.1778 3.06C15.5218 3.06 15.7138 2.876 15.7978 2.74C15.7978 2.88 15.8098 2.952 15.8178 3H16.1858C16.1778 2.952 16.1618 2.852 16.1618 2.684V1.72C16.1618 1.344 15.9378 1.016 15.3618 1.016C14.9458 1.016 14.6138 1.272 14.5738 1.64L14.9338 1.724C14.9578 1.5 15.1058 1.336 15.3698 1.336C15.6618 1.336 15.7858 1.492 15.7858 1.68C15.7858 1.748 15.7538 1.808 15.6378 1.824L15.1178 1.9C14.7858 1.948 14.5338 2.14 14.5338 2.484ZM15.2298 2.744C15.0378 2.744 14.9178 2.608 14.9178 2.464C14.9178 2.292 15.0378 2.2 15.1978 2.176L15.7858 2.088V2.176C15.7858 2.596 15.5378 2.744 15.2298 2.744ZM16.8075 2.5C16.8395 2.72 17.0635 3.06 17.5915 3.06C18.0675 3.06 18.2955 2.736 18.2955 2.464C18.2955 2.18 18.1115 1.968 17.7635 1.892L17.4515 1.824C17.3035 1.792 17.2315 1.708 17.2315 1.592C17.2315 1.46 17.3595 1.336 17.5515 1.336C17.8555 1.336 17.9355 1.556 17.9515 1.656L18.2835 1.532C18.2435 1.36 18.0795 1.016 17.5515 1.016C17.1755 1.016 16.8675 1.296 16.8675 1.624C16.8675 1.896 17.0475 2.1 17.3475 2.164L17.6755 2.236C17.8355 2.272 17.9235 2.364 17.9235 2.484C17.9235 2.62 17.8075 2.74 17.5955 2.74C17.3235 2.74 17.1715 2.58 17.1475 2.38L16.8075 2.5ZM19.2406 2.032C19.2406 1.636 19.4646 1.356 19.8086 1.356C20.1526 1.356 20.3606 1.628 20.3606 2.024C20.3606 2.42 20.1486 2.72 19.8046 2.72C19.4446 2.72 19.2406 2.428 19.2406 2.032ZM20.3646 2.74C20.3646 2.856 20.3766 2.956 20.3846 3H20.7486C20.7446 2.968 20.7286 2.828 20.7286 2.644V0.104H20.3566V1.348C20.2926 1.192 20.1086 1.024 19.7686 1.024C19.2246 1.024 18.8566 1.488 18.8566 2.032C18.8566 2.604 19.2046 3.052 19.7686 3.052C20.0686 3.052 20.2726 2.892 20.3646 2.708V2.74ZM21.4881 2.484C21.4881 2.788 21.7401 3.06 22.1321 3.06C22.4761 3.06 22.6681 2.876 22.7521 2.74C22.7521 2.88 22.7641 2.952 22.7721 3H23.1401C23.1321 2.952 23.1161 2.852 23.1161 2.684V1.72C23.1161 1.344 22.8921 1.016 22.3161 1.016C21.9001 1.016 21.5681 1.272 21.5281 1.64L21.8881 1.724C21.9121 1.5 22.0601 1.336 22.3241 1.336C22.6161 1.336 22.7401 1.492 22.7401 1.68C22.7401 1.748 22.7081 1.808 22.5921 1.824L22.0721 1.9C21.7401 1.948 21.4881 2.14 21.4881 2.484ZM22.1841 2.744C21.9921 2.744 21.8721 2.608 21.8721 2.464C21.8721 2.292 21.9921 2.2 22.1521 2.176L22.7401 2.088V2.176C22.7401 2.596 22.4921 2.744 22.1841 2.744ZM24.1659 2.032C24.1659 1.636 24.3899 1.356 24.7339 1.356C25.0779 1.356 25.2859 1.628 25.2859 2.024C25.2859 2.42 25.0739 2.72 24.7299 2.72C24.3699 2.72 24.1659 2.428 24.1659 2.032ZM25.2899 2.74C25.2899 2.856 25.3019 2.956 25.3099 3H25.6739C25.6699 2.968 25.6539 2.828 25.6539 2.644V0.104H25.2819V1.348C25.2179 1.192 25.0339 1.024 24.6939 1.024C24.1499 1.024 23.7819 1.488 23.7819 2.032C23.7819 2.604 24.1299 3.052 24.6939 3.052C24.9939 3.052 25.1979 2.892 25.2899 2.708V2.74ZM26.3534 2.5C26.3854 2.72 26.6094 3.06 27.1374 3.06C27.6134 3.06 27.8414 2.736 27.8414 2.464C27.8414 2.18 27.6574 1.968 27.3094 1.892L26.9974 1.824C26.8494 1.792 26.7774 1.708 26.7774 1.592C26.7774 1.46 26.9054 1.336 27.0974 1.336C27.4014 1.336 27.4814 1.556 27.4974 1.656L27.8294 1.532C27.7894 1.36 27.6254 1.016 27.0974 1.016C26.7214 1.016 26.4134 1.296 26.4134 1.624C26.4134 1.896 26.5934 2.1 26.8934 2.164L27.2214 2.236C27.3814 2.272 27.4694 2.364 27.4694 2.484C27.4694 2.62 27.3534 2.74 27.1414 2.74C26.8694 2.74 26.7174 2.58 26.6934 2.38L26.3534 2.5ZM28.423 2.484C28.423 2.788 28.675 3.06 29.067 3.06C29.411 3.06 29.603 2.876 29.687 2.74C29.687 2.88 29.699 2.952 29.707 3H30.075C30.067 2.952 30.051 2.852 30.051 2.684V1.72C30.051 1.344 29.827 1.016 29.251 1.016C28.835 1.016 28.503 1.272 28.463 1.64L28.823 1.724C28.847 1.5 28.995 1.336 29.259 1.336C29.551 1.336 29.675 1.492 29.675 1.68C29.675 1.748 29.643 1.808 29.527 1.824L29.007 1.9C28.675 1.948 28.423 2.14 28.423 2.484ZM29.119 2.744C28.927 2.744 28.807 2.608 28.807 2.464C28.807 2.292 28.927 2.2 29.087 2.176L29.675 2.088V2.176C29.675 2.596 29.427 2.744 29.119 2.744ZM31.1007 2.032C31.1007 1.636 31.3247 1.356 31.6687 1.356C32.0127 1.356 32.2207 1.628 32.2207 2.024C32.2207 2.42 32.0087 2.72 31.6647 2.72C31.3047 2.72 31.1007 2.428 31.1007 2.032ZM32.2247 2.74C32.2247 2.856 32.2367 2.956 32.2447 3H32.6087C32.6047 2.968 32.5887 2.828 32.5887 2.644V0.104H32.2167V1.348C32.1527 1.192 31.9687 1.024 31.6287 1.024C31.0847 1.024 30.7167 1.488 30.7167 2.032C30.7167 2.604 31.0647 3.052 31.6287 3.052C31.9287 3.052 32.1327 2.892 32.2247 2.708V2.74ZM33.2883 2.5C33.3203 2.72 33.5443 3.06 34.0723 3.06C34.5483 3.06 34.7763 2.736 34.7763 2.464C34.7763 2.18 34.5923 1.968 34.2443 1.892L33.9323 1.824C33.7843 1.792 33.7123 1.708 33.7123 1.592C33.7123 1.46 33.8403 1.336 34.0323 1.336C34.3363 1.336 34.4163 1.556 34.4323 1.656L34.7643 1.532C34.7243 1.36 34.5603 1.016 34.0323 1.016C33.6563 1.016 33.3483 1.296 33.3483 1.624C33.3483 1.896 33.5283 2.1 33.8283 2.164L34.1563 2.236C34.3163 2.272 34.4043 2.364 34.4043 2.484C34.4043 2.62 34.2883 2.74 34.0763 2.74C33.8043 2.74 33.6523 2.58 33.6283 2.38L33.2883 2.5ZM35.7213 2.032C35.7213 1.636 35.9453 1.356 36.2893 1.356C36.6333 1.356 36.8413 1.628 36.8413 2.024C36.8413 2.42 36.6293 2.72 36.2853 2.72C35.9253 2.72 35.7213 2.428 35.7213 2.032ZM36.8453 2.74C36.8453 2.856 36.8573 2.956 36.8653 3H37.2293C37.2253 2.968 37.2093 2.828 37.2093 2.644V0.104H36.8373V1.348C36.7733 1.192 36.5893 1.024 36.2493 1.024C35.7053 1.024 35.3373 1.488 35.3373 2.032C35.3373 2.604 35.6853 3.052 36.2493 3.052C36.5493 3.052 36.7533 2.892 36.8453 2.708V2.74ZM37.9089 2.5C37.9409 2.72 38.1649 3.06 38.6929 3.06C39.1689 3.06 39.3969 2.736 39.3969 2.464C39.3969 2.18 39.2129 1.968 38.8649 1.892L38.5529 1.824C38.4049 1.792 38.3329 1.708 38.3329 1.592C38.3329 1.46 38.4609 1.336 38.6529 1.336C38.9569 1.336 39.0369 1.556 39.0529 1.656L39.3849 1.532C39.3449 1.36 39.1809 1.016 38.6529 1.016C38.2769 1.016 37.9689 1.296 37.9689 1.624C37.9689 1.896 38.1489 2.1 38.4489 2.164L38.7769 2.236C38.9369 2.272 39.0249 2.364 39.0249 2.484C39.0249 2.62 38.9089 2.74 38.6969 2.74C38.4249 2.74 38.2729 2.58 38.2489 2.38L37.9089 2.5ZM39.9784 2.484C39.9784 2.788 40.2304 3.06 40.6224 3.06C40.9664 3.06 41.1584 2.876 41.2424 2.74C41.2424 2.88 41.2544 2.952 41.2624 3H41.6304C41.6224 2.952 41.6064 2.852 41.6064 2.684V1.72C41.6064 1.344 41.3824 1.016 40.8064 1.016C40.3904 1.016 40.0584 1.272 40.0184 1.64L40.3784 1.724C40.4024 1.5 40.5504 1.336 40.8144 1.336C41.1064 1.336 41.2304 1.492 41.2304 1.68C41.2304 1.748 41.1984 1.808 41.0824 1.824L40.5624 1.9C40.2304 1.948 39.9784 2.14 39.9784 2.484ZM40.6744 2.744C40.4824 2.744 40.3624 2.608 40.3624 2.464C40.3624 2.292 40.4824 2.2 40.6424 2.176L41.2304 2.088V2.176C41.2304 2.596 40.9824 2.744 40.6744 2.744ZM42.6562 2.032C42.6562 1.636 42.8802 1.356 43.2242 1.356C43.5682 1.356 43.7762 1.628 43.7762 2.024C43.7762 2.42 43.5642 2.72 43.2202 2.72C42.8602 2.72 42.6562 2.428 42.6562 2.032ZM43.7802 2.74C43.7802 2.856 43.7922 2.956 43.8002 3H44.1642C44.1602 2.968 44.1442 2.828 44.1442 2.644V0.104H43.7722V1.348C43.7082 1.192 43.5242 1.024 43.1842 1.024C42.6402 1.024 42.2722 1.488 42.2722 2.032C42.2722 2.604 42.6202 3.052 43.1842 3.052C43.4842 3.052 43.6882 2.892 43.7802 2.708V2.74ZM44.9038 2.484C44.9038 2.788 45.1558 3.06 45.5478 3.06C45.8918 3.06 46.0838 2.876 46.1678 2.74C46.1678 2.88 46.1798 2.952 46.1878 3H46.5558C46.5478 2.952 46.5318 2.852 46.5318 2.684V1.72C46.5318 1.344 46.3078 1.016 45.7318 1.016C45.3158 1.016 44.9838 1.272 44.9438 1.64L45.3038 1.724C45.3278 1.5 45.4758 1.336 45.7398 1.336C46.0318 1.336 46.1558 1.492 46.1558 1.68C46.1558 1.748 46.1238 1.808 46.0078 1.824L45.4878 1.9C45.1558 1.948 44.9038 2.14 44.9038 2.484ZM45.5998 2.744C45.4078 2.744 45.2878 2.608 45.2878 2.464C45.2878 2.292 45.4078 2.2 45.5678 2.176L46.1558 2.088V2.176C46.1558 2.596 45.9078 2.744 45.5998 2.744ZM47.5815 2.032C47.5815 1.636 47.8055 1.356 48.1495 1.356C48.4935 1.356 48.7015 1.628 48.7015 2.024C48.7015 2.42 48.4895 2.72 48.1455 2.72C47.7855 2.72 47.5815 2.428 47.5815 2.032ZM48.7055 2.74C48.7055 2.856 48.7175 2.956 48.7255 3H49.0895C49.0855 2.968 49.0695 2.828 49.0695 2.644V0.104H48.6975V1.348C48.6335 1.192 48.4495 1.024 48.1095 1.024C47.5655 1.024 47.1975 1.488 47.1975 2.032C47.1975 2.604 47.5455 3.052 48.1095 3.052C48.4095 3.052 48.6135 2.892 48.7055 2.708V2.74ZM49.8291 2.484C49.8291 2.788 50.0811 3.06 50.4731 3.06C50.8171 3.06 51.0091 2.876 51.0931 2.74C51.0931 2.88 51.1051 2.952 51.1131 3H51.4811C51.4731 2.952 51.4571 2.852 51.4571 2.684V1.72C51.4571 1.344 51.2331 1.016 50.6571 1.016C50.2411 1.016 49.9091 1.272 49.8691 1.64L50.2291 1.724C50.2531 1.5 50.4011 1.336 50.6651 1.336C50.9571 1.336 51.0811 1.492 51.0811 1.68C51.0811 1.748 51.0491 1.808 50.9331 1.824L50.4131 1.9C50.0811 1.948 49.8291 2.14 49.8291 2.484ZM50.5251 2.744C50.3331 2.744 50.2131 2.608 50.2131 2.464C50.2131 2.292 50.3331 2.2 50.4931 2.176L51.0811 2.088V2.176C51.0811 2.596 50.8331 2.744 50.5251 2.744Z" fill="#B3B3B3"/>
</svg>
